<?xml version="1.0" standalone="no"?><!DOCTYPE svg PUBLIC "-//W3C//DTD SVG 1.1//EN" "http://www.w3.org/Graphics/SVG/1.1/DTD/svg11.dtd">
<svg t="1694271096762" class="icon" viewBox="0 0 1024 1024" version="1.1"
  xmlns="http://www.w3.org/2000/svg" p-id="7851"
  xmlns:xlink="http://www.w3.org/1999/xlink">
  <path d="M320 256a106.666667 106.666667 0 0 1 106.453333 99.669333l0.213334 8.789334c-0.426667 151.68-52.906667 282.197333-158.08 393.514666a32 32 0 1 1-46.506667-43.946666c69.973333-74.112 113.493333-156.757333 131.285333-249.984A106.666667 106.666667 0 1 1 320 256z m384 0a106.666667 106.666667 0 0 1 106.453333 99.669333l0.213334 8.789334c-0.426667 151.893333-52.821333 282.197333-158.08 393.514666a32 32 0 1 1-46.506667-43.946666c70.101333-74.154667 113.578667-156.672 131.328-249.984A106.666667 106.666667 0 1 1 704 256z" fill="#515151" p-id="7852"></path>
</svg>