<?xml version="1.0" standalone="no"?><!DOCTYPE svg PUBLIC "-//W3C//DTD SVG 1.1//EN" "http://www.w3.org/Graphics/SVG/1.1/DTD/svg11.dtd">
<svg t="1694267222677" class="icon" viewBox="0 0 1024 1024" version="1.1"
  xmlns="http://www.w3.org/2000/svg" p-id="1237"
  xmlns:xlink="http://www.w3.org/1999/xlink">
  <path d="M156.09136 308.623635a50.844091 50.844091 0 0 1 0-101.688183h711.81728a50.844091 50.844091 0 0 1 0 101.688183z m254.220457-152.532275a50.844091 50.844091 0 1 1 0-101.688182h203.376366a50.844091 50.844091 0 1 1 0 101.688182z m355.90864 254.220457a50.844091 50.844091 0 0 1 101.688183 0v406.752731a152.532274 152.532274 0 0 1-152.532275 152.532274h-406.75273a152.532274 152.532274 0 0 1-152.532275-152.532274v-406.752731a50.844091 50.844091 0 1 1 101.688183 0v406.752731a50.844091 50.844091 0 0 0 50.844092 50.844092h406.75273a50.844091 50.844091 0 0 0 50.844092-50.844092z m-432.174777 76.266137a50.844091 50.844091 0 1 1 101.688183 0v203.376366a50.844091 50.844091 0 0 1-101.688183 0z m254.220457 0a50.844091 50.844091 0 0 1 101.688183 0v203.376366a50.844091 50.844091 0 0 1-101.688183 0z" fill="#666666" p-id="1238"></path>
</svg>